<svg width="1280" height="190" viewBox="0 0 1280 190" fill="none" xmlns="http://www.w3.org/2000/svg">
<g clip-path="url(#clip0_80_48)">
<path d="M1337.7 122.91L1099.19 187.607L931.192 155.259L700.186 187.607L418.178 122.91L-4.82764 187.607L417.879 139.316L700.186 187.607L930.661 171.433L1099.19 187.607L1337.7 139.154" stroke="#BCBEC0" stroke-width="4" stroke-miterlimit="10"/>
<path d="M-4.82764 187.608L416.804 155.259L700.186 187.608" stroke="#BCBEC0" stroke-width="4" stroke-miterlimit="10"/>
<path d="M1099.19 187.608L1335.11 155.259" stroke="#BCBEC0" stroke-width="4" stroke-miterlimit="10"/>
<path d="M666.437 179.869L801.287 79.9201L833.151 109.375L874.899 42.7732L896.865 88.8818L941.913 72.2353L1030.04 174.297" stroke="#BCBEC0" stroke-width="4" stroke-miterlimit="10"/>
<path d="M776.858 98.0292L782.176 111.325L792.863 98.0292L797.942 109.645L803.431 94.4693L808.961 105.288L816.197 93.7031" stroke="#BCBEC0" stroke-width="4" stroke-miterlimit="10"/>
<path d="M861.238 64.566L866.602 70.8113L872.39 62.7783L878.597 70.0142L884.618 63.0027" stroke="#BCBEC0" stroke-width="4" stroke-miterlimit="10"/>
<path d="M927.587 77.5288L939.138 88.2859L949.866 81.4447" stroke="#BCBEC0" stroke-width="4" stroke-miterlimit="10"/>
<path d="M331.874 136.113V92.4031L317.196 75.3V40.6682L326.125 30.2594L332.146 37.2786V57.9106L339.528 66.5163L345.754 59.2572V12.305L354.384 2.24438L361.865 10.9662V32.9989V69.1785L350.667 82.2264V132.653" stroke="#BCBEC0" stroke-width="4" stroke-miterlimit="10"/>
<path d="M405.91 124.783V98.4627L397.719 88.9206V69.1786L389.454 59.5436V42.5721L396.092 34.8331L400.633 40.1343V50.0711L405.844 56.1462V33.1925L410.882 27.3186L414.467 31.5054V74.0773L420.183 80.7405L424.245 76.0043V47.0761L431.667 38.424L438.119 45.9462V80.4542L421.225 100.15V122.91" stroke="#BCBEC0" stroke-width="4" stroke-miterlimit="10"/>
<path d="M1220.16 50.5586L1150.67 46.813L1175.54 62.5463L1168.65 85.6083L1220.16 50.5586Z" stroke="#BCBEC0" stroke-width="3.07" stroke-miterlimit="10"/>
<path d="M1220.16 50.5586L1175.54 62.5462L1156.62 81.1197L1170.73 78.6432" stroke="#BCBEC0" stroke-width="3.07" stroke-miterlimit="10"/>
<path d="M1132.29 69.0854C1131.06 69.4182 1129.78 69.8052 1128.44 70.2695" stroke="#BCBEC0" stroke-width="3.07" stroke-miterlimit="10"/>
<path d="M1120.72 73.6128C1115.71 76.2905 1110.56 80.1522 1106.12 85.8016C1096.11 98.5244 1096.89 111.162 1091.71 122.987C1086.43 135.052 1074.01 148.371 1043.13 155.057" stroke="#BCBEC0" stroke-width="3.07" stroke-miterlimit="10"/>
<path d="M1039.07 155.87C1037.79 156.11 1036.48 156.342 1035.13 156.559" stroke="#BCBEC0" stroke-width="3.07" stroke-miterlimit="10"/>
</g>
<defs>
<clipPath id="clip0_80_48">
<rect width="1343" height="189.132" fill="white" transform="translate(-5 0.0541992)"/>
</clipPath>
</defs>
</svg>
