<svg width="469" height="891" viewBox="0 0 469 891" fill="none" xmlns="http://www.w3.org/2000/svg">
<g clip-path="url(#clip0_50_66)">
<path d="M1020 427.405C1018.05 440.78 1016.31 454.202 1014.11 467.531C993.172 594.509 931.83 698.824 830.465 780.466C825.889 784.148 819.635 786.731 813.782 787.761C805.895 789.14 799.865 784.704 796.011 777.872C792.085 770.9 792.783 763.987 797.536 757.815C800.291 754.236 803.862 751.168 807.421 748.296C895.342 677.158 949.424 586.345 971.156 476.98C980.166 431.632 981.526 385.901 976.441 342.012C967.562 352.341 958.788 363.945 948.549 374.135C935.259 387.348 919.463 383.504 912.794 366.122C904.777 345.219 898.759 323.39 888.733 303.484C881.473 289.055 869.46 276.791 858.7 264.273C856.442 261.632 850.424 262.096 843.992 260.637C851.393 276.224 845.008 285.337 834.828 294.451C806.227 320.044 773.297 338.016 737.022 350.523C722.999 355.364 714.521 352.156 707.498 339.151C691.099 308.799 674.865 278.366 658.808 247.84C656.904 244.216 655.202 239.665 655.686 235.808C656.987 225.398 650.992 219.55 644.572 212.578C632.713 199.689 617.803 193.193 601.581 188.016C590.053 184.334 584.413 176.517 585.17 167.623C586.245 155.082 598.081 146.501 610.697 150.172C631.921 156.333 653.452 162.192 668.042 180.651C671.246 184.716 675.338 188.248 679.523 191.398C691.489 200.396 697.566 211.686 695.733 226.764C695.402 229.474 696.065 232.693 697.342 235.125C710.159 259.606 723.188 283.959 737.389 310.652C759.44 297.798 780.829 285.337 800.563 273.838C797.855 263.844 794.426 256.803 794.355 249.728C794.202 234.801 805.99 223.545 821.503 222.908C834.06 222.398 846.983 221.275 859.15 223.545C869.011 225.374 879.818 229.926 886.971 236.596C906.882 255.171 925.102 275.448 932.055 302.801C933.154 307.108 935.176 311.196 937.624 317.589C940.154 300.091 947.875 287.966 959.344 277.625C961.638 275.552 962.608 270.074 961.673 266.867C944.446 207.205 916.282 152.94 876.4 104.731C806.25 19.9394 716.189 -33.2953 607.635 -56.7223C592.5 -59.988 576.999 -61.8524 561.569 -63.4621C557.963 -63.8326 552.701 -61.5166 550.325 -58.7025C534.245 -39.734 519.228 -19.8969 502.793 -1.22939C497.059 5.27876 489.019 11.0805 480.849 14.0682C443.403 27.7446 405.46 40.1471 367.896 53.5224C363.675 55.0278 359.241 59.2315 357.385 63.273C349.085 81.2573 341.364 99.5195 334.246 117.99C332.827 121.673 333.501 127.532 335.665 130.879C343.054 142.355 351.532 153.148 360.057 164.856C364.314 160.004 367.896 155.557 371.869 151.457C393.234 129.362 419.968 121.522 450.249 123.85C460.807 124.66 468.942 133.728 468.753 143.409C468.552 153.623 459.98 161.764 448.759 162.528C441.18 163.049 433.412 162.852 426.081 164.474C408.865 168.272 396.912 178.439 389.865 196.319C401.83 195.729 412.318 194.594 422.782 194.837C436.569 195.161 450.71 194.965 464.023 197.894C482.882 202.052 490.378 214.026 489.385 233.99C496.409 238.252 503.905 242.791 511.555 247.435C526.027 230.377 543.219 226.116 563.993 233.921C573.831 237.615 584.2 239.989 594.38 242.768C619.896 249.739 636.236 266.288 646.405 289.68C656.502 312.91 666.883 336.024 677.43 359.058C684.974 375.537 696.585 386.7 716.531 387.221C722.337 387.372 728.213 389.41 733.83 391.263C753.008 397.585 762.124 415.662 752.878 433.195C746.327 445.632 736.774 456.784 727.338 467.473C715.444 480.941 702.012 493.077 689.81 506.29C682.526 514.176 679.559 523.95 683.697 534.303C696.608 566.681 688.698 593.791 663.254 617.102C659.553 620.495 657.519 625.672 654.835 630.095C648.628 640.332 642.16 650.43 636.437 660.922C632.465 668.206 629.863 676.197 626.115 683.62C621.776 692.212 618.572 702.31 611.797 708.552C598.448 720.85 584.129 733.01 568.131 741.452C541.587 755.452 519.063 747.983 504.449 722.275C497.26 709.629 492.211 695.779 486.512 682.346C478.401 663.227 470.467 644.026 462.699 624.768C455.215 606.217 455.439 587.572 462.072 568.731C465.714 558.39 470.254 547.69 465.371 536.677C462.675 530.586 459.069 524.494 454.493 519.665C442.752 507.286 437.846 492.834 437.727 476.262C437.633 463.339 433.187 460.154 419.708 461.868C401.748 464.149 383.728 468.133 365.78 467.89C314.855 467.206 269.05 424.811 262.428 375.316C257.368 337.53 268.494 305.117 292.898 276.177C310.586 255.205 327.743 233.793 345.36 212.3C328.653 189.36 312.431 166.454 295.476 144.092C288.133 134.411 287.045 125.436 291.999 114.319C303.256 89.1087 313.732 63.5741 324.16 38.0163C328.015 28.5784 334.376 22.904 344.26 19.592C383.338 6.51785 422.309 -6.88058 461.126 -20.6728C466.636 -22.6298 471.993 -26.6366 475.894 -31.0024C485.613 -41.9227 494.458 -53.5956 505.016 -66.6351C398.39 -64.3537 305.147 -31.6972 223.351 29.829C233.058 40.9577 244.09 50.6852 251.456 62.6014C270.492 93.3472 268.624 130.265 243.51 156.506C217.427 183.766 199.751 215.763 181.956 247.806C169.765 269.762 155.187 288.452 132.781 300.797C130.215 302.21 128.016 304.236 124.752 306.645C132.024 317.16 139.26 327.49 146.354 337.9C158.143 355.213 151.356 369.839 130.31 372.723C111.321 375.316 92.3553 378.084 73.3309 380.493C62.2757 381.894 52.0482 380.319 43.5823 370.291V419.924C57.9127 415.361 71.7111 411.482 85.1192 406.572C97.8534 401.893 108.329 403.526 119.03 412.235C135.831 425.899 154.477 437.433 170.865 451.527C189.251 467.334 209.872 475.706 233.933 478.567C258.716 481.508 279.135 492.799 287.968 516.955C291.716 527.204 293.111 539.363 291.574 550.098C289.741 562.814 290.344 574.359 294.814 586.183C302.558 606.645 300.903 626.216 288.192 644.536C280.247 655.989 269.274 663.632 255.984 667.662C249.978 669.48 247.542 672.688 246.49 678.385C241.772 703.874 237.019 729.35 231.71 754.723C230.646 759.795 231.793 762.192 235.825 765.052C295.535 807.413 361.736 834.546 434.44 846.288C515.173 859.328 593.966 851.361 670.892 824.402C674.309 823.209 677.726 821.831 681.273 821.205C692.387 819.214 701.74 824.448 704.944 834.129C707.947 843.22 703.714 853.017 693.948 857.591C687.114 860.787 679.866 863.196 672.642 865.489C633.824 877.798 594.25 886.518 553.435 889.275C550.526 889.471 547.665 890.444 544.78 891.046H481.144C478.259 890.502 475.398 889.645 472.501 889.437C426.034 886.183 380.429 877.66 337.273 860.868C146.875 786.789 35.5304 650.245 5.87638 451.503C-6.27844 370.036 4.39841 289.877 36.157 213.921C112.456 31.4155 251.822 -74.0233 450.781 -102.395C535.321 -114.45 618.205 -103.183 697.01 -71.3251C870.973 -0.986191 975.259 126.154 1012.18 306.599C1015.61 323.332 1017.42 340.39 1019.99 357.298V427.416L1020 427.405ZM443.107 233.052C425.123 234.164 408.322 235.391 391.496 236.179C379.708 236.735 371.1 241.761 363.983 251.025C350.267 268.905 335.925 286.333 321.606 303.75C306.826 321.723 299.78 341.815 301.707 365.068C305.171 406.966 345.171 436.588 387.228 428.088C396.935 426.131 406.666 424.104 416.48 422.831C450.97 418.361 475.764 437.63 477.881 471.41C478.59 482.759 482.421 491.317 489.705 500.083C496.373 508.12 501.292 518.171 504.65 528.096C510.751 546.126 505.406 563.821 500.5 581.481C498.501 588.672 496.491 597.497 498.927 603.97C511.366 636.997 525.247 669.503 538.655 702.171C539.021 703.063 539.471 704.279 540.216 704.592C542.947 705.726 547.073 708.205 548.433 707.22C561.061 698.06 573.216 688.275 585.512 678.675C589.19 656.857 602.007 639.591 614.682 622.221C615.616 620.947 615.758 619.129 616.597 617.774C622.58 608.174 627.12 597.103 635.042 589.39C648.036 576.745 652.092 564.377 645.825 546.902C636.733 521.599 643.319 498.08 660.96 478.092C671.98 465.608 684.572 454.468 696.348 442.61C701.267 437.653 705.89 432.419 712.464 425.344C672.429 424.301 652.943 400.689 638.708 371.159C630.1 353.314 621.551 335.318 614.906 316.732C607.008 294.636 593.813 279.825 569.314 276.363C565.424 275.807 561.498 274.718 557.904 273.178C552.489 270.862 549.154 272.078 545.3 276.629C535.77 287.873 522.728 293.177 508.942 287.19C490.355 279.119 472.891 268.569 454.978 259.015C445.235 253.816 440.648 245.953 443.119 233.052H443.107ZM195.222 732.315C199.999 708.008 205.272 685.658 208.536 663.03C210.924 646.481 218.515 637.287 235.328 632.817C258.775 626.586 263.232 616.94 255.452 594.578C249.895 578.621 247.211 562.999 252.071 546.092C256.185 531.802 248.594 521.877 233.33 518.577C223.658 516.481 213.963 514.361 204.173 512.972C189.097 510.829 176.044 505.375 164.043 495.752C143.836 479.528 122.731 464.358 101.637 449.222C98.5865 447.033 93.1475 446.072 89.4703 447.022C77.3628 450.137 65.6455 454.723 53.5852 458.07C48.0044 459.621 47.3186 462.169 48.2173 467.218C55.1696 506.29 66.3904 544.065 83.1092 580.219C109.642 637.599 146.437 687.731 195.222 732.326V732.315ZM187.643 59.8337C114.135 129.883 67.9156 214.315 49.6006 313.362C49.1513 315.759 48.9267 318.828 50.0499 320.773C59.3789 336.835 76.6416 342.799 96.9784 336.928C92.4617 330.339 88.0633 323.935 83.6649 317.519C73.3309 302.418 75.1045 292.934 90.3216 282.141C96.7538 277.579 102.914 272.541 109.772 268.685C126.715 259.143 137.558 244.934 147.04 228.443C166.277 194.988 184.096 160.86 211.823 132.315C235.482 107.95 221.66 70.4297 187.643 59.8684V59.8337Z" fill="#68BBD8"/>
</g>
<defs>
<clipPath id="clip0_50_66">
<rect width="1020" height="999" fill="white" transform="translate(0 -108)"/>
</clipPath>
</defs>
</svg>
